<?xml version="1.0" standalone="no"?>
<!DOCTYPE svg PUBLIC "-//W3C//DTD SVG 20010904//EN" "http://www.w3.org/TR/2001/REC-SVG-20010904/DTD/svg10.dtd">
<svg version="1.0" xmlns="http://www.w3.org/2000/svg" width="36" height="36" viewBox="0 0 360 360" preserveAspectRatio="xMidYMid meet">
	<g transform="translate(0,360) scale(0.1,-0.1)" fill="#000000" stroke="none">
		<path d="M176 3558 c-58 -16 -111 -74 -125 -137 -16 -73 -16 -3169 0 -3242 15
		-70 68 -123 138 -138 72 -15 1710 -15 1781 0 93 20 154 111 131 197 -14 50
		-35 78 -82 107 l-39 25 -800 0 -800 0 0 1430 0 1430 800 0 800 0 39 25 c47 29
		68 57 82 108 23 85 -38 176 -131 196 -68 15 -1739 13 -1794 -1z"/>
		<path d="M2453 2824 c-48 -24 -77 -57 -91 -105 -25 -87 -16 -99 325 -441 l307
		-307 -855 -3 c-824 -3 -856 -4 -884 -22 -67 -44 -85 -75 -85 -146 0 -71 18
		-102 85 -146 28 -18 60 -19 884 -22 l855 -3 -306 -307 c-169 -169 -312 -320
		-317 -335 -49 -129 65 -253 199 -217 38 10 96 64 507 477 256 256 469 477 474
		490 12 31 12 95 0 126 -15 38 -924 945 -965 962 -45 19 -93 19 -133 -1z"/>
	</g>
</svg>
