<?xml version="1.0" standalone="no"?>
<!DOCTYPE svg PUBLIC "-//W3C//DTD SVG 20010904//EN" "http://www.w3.org/TR/2001/REC-SVG-20010904/DTD/svg10.dtd">
<svg version="1.0" xmlns="http://www.w3.org/2000/svg" width="51.000000pt" height="51.000000pt" viewBox="0 0 512.000000 512.000000" preserveAspectRatio="xMidYMid meet">
    <g transform="translate(0.000000,512.000000) scale(0.100000,-0.100000)" fill="#ffffff" stroke="none">
        <path d="M513 4865 c-100 -31 -190 -112 -241 -215 l-27 -55 0 -2035 0 -2035
        29 -60 c38 -77 114 -153 191 -191 l60 -29 1235 0 1235 0 60 29 c77 38 153 114
        191 191 l29 60 3 240 c4 270 0 295 -56 357 -50 56 -102 78 -182 78 -77 0 -130
        -22 -177 -71 -55 -58 -63 -91 -63 -259 l0 -150 -1040 0 -1040 0 0 1840 0 1840
        1040 0 1040 0 0 -150 c0 -168 8 -201 63 -259 47 -49 100 -71 177 -71 80 0 132
        22 182 78 56 62 60 87 56 357 l-3 240 -29 60 c-38 77 -114 153 -191 191 l-60
        29 -1220 2 c-993 1 -1228 -1 -1262 -12z"/>
        <path d="M3650 3697 c-49 -16 -133 -102 -148 -153 -15 -52 -15 -105 0 -158 10
        -34 57 -87 282 -313 l270 -273 -1339 0 c-1284 0 -1342 -1 -1380 -19 -86 -40
        -135 -120 -135 -221 0 -101 49 -181 135 -221 38 -18 96 -19 1380 -19 l1339 0
        -270 -272 c-287 -290 -294 -299 -294 -393 0 -68 22 -117 75 -170 53 -53 102
        -75 170 -75 99 0 86 -11 614 514 333 332 499 504 512 531 12 26 19 62 19 105
        0 43 -7 79 -19 105 -13 27 -179 199 -512 531 -422 419 -500 492 -535 502 -50
        14 -117 14 -164 -1z"/>
    </g>
</svg>