<svg xmlns="http://www.w3.org/2000/svg" width="387" height="387" viewBox="0 0 387 387" version="1.1">
	<path d="" stroke="none" fill="#080404" fill-rule="evenodd"/>
	<path d="M 264.939 13.354 C 262.430 14.036, 259.055 15.557, 257.439 16.733 C 255.822 17.909, 232.902 40.500, 206.504 66.936 L 158.508 115 122.504 115.010 C 86.891 115.019, 86.446 115.045, 81.500 117.353 C 74.919 120.424, 69.511 126.540, 67.556 133.122 C 65.296 140.735, 65.227 243.034, 67.477 250.612 C 69.412 257.125, 75.136 263.689, 81.444 266.626 C 86.457 268.961, 86.804 268.981, 122.478 268.990 L 158.455 269 208.478 318.882 C 262.750 373.002, 260.772 371.372, 272.023 371.266 C 281.921 371.173, 290.393 365.647, 294.649 356.507 L 296.980 351.500 296.980 192 L 296.980 32.500 294.649 27.493 C 289.388 16.195, 276.695 10.154, 264.939 13.354" stroke="none" fill="#040404" fill-rule="evenodd"/>
</svg>