<?xml version="1.0" standalone="no"?>
<!DOCTYPE svg PUBLIC "-//W3C//DTD SVG 20010904//EN" "http://www.w3.org/TR/2001/REC-SVG-20010904/DTD/svg10.dtd">
<svg version="1.0" xmlns="http://www.w3.org/2000/svg" width="36pt" height="36pt" viewBox="0 0 360 360" preserveAspectRatio="xMidYMid meet">
	<g transform="translate(0,360) scale(0.1,-0.1)" fill="#000000" stroke="none">
		<path d="M1605 3483 c-51 -11 -248 -87 -269 -104 -13 -11 -27 -19 -30 -19 -9
		0 -88 -53 -121 -80 -92 -78 -199 -203 -243 -285 -23 -44 -72 -167 -72 -183 0
		-6 -23 -15 -51 -21 -72 -16 -193 -58 -259 -90 -107 -53 -143 -77 -217 -144
		-106 -97 -153 -157 -228 -292 -35 -64 -88 -223 -89 -271 0 -24 -4 -44 -8 -44
		-14 0 -8 -213 7 -295 21 -108 90 -294 115 -310 5 -3 15 -18 23 -33 39 -80 210
		-256 294 -304 21 -12 46 -28 55 -36 23 -19 238 -91 326 -108 77 -15 380 -20
		442 -7 20 4 53 25 82 53 48 46 48 46 48 113 0 63 -2 69 -37 108 -57 64 -79 69
		-271 69 -93 0 -194 5 -226 11 -67 12 -189 65 -243 106 -73 53 -133 106 -133
		116 0 5 -14 25 -30 44 -17 19 -28 38 -25 44 4 5 1 9 -5 9 -6 0 -8 5 -5 10 3 6
		1 10 -6 10 -7 0 -10 3 -6 6 3 4 -1 23 -10 43 -27 63 -43 144 -43 228 0 97 14
		167 46 236 12 28 21 54 18 59 -3 4 0 8 6 8 6 0 8 5 5 10 -3 6 -1 10 5 10 6 0
		9 4 6 9 -7 11 145 167 173 176 11 3 21 10 21 14 0 7 77 48 135 71 46 19 95 29
		177 34 145 9 199 54 228 191 14 68 42 147 57 163 7 7 13 20 13 28 0 8 5 14 10
		14 6 0 10 6 10 13 0 18 95 126 140 158 48 35 168 87 240 105 65 16 206 18 270
		3 92 -20 218 -81 285 -136 37 -30 64 -57 62 -60 -3 -2 2 -13 11 -23 30 -33 38
		-44 51 -77 7 -18 17 -33 20 -33 8 0 46 -113 57 -165 13 -68 60 -136 108 -159
		19 -9 81 -20 139 -25 57 -5 120 -16 138 -24 19 -9 56 -25 82 -36 62 -26 94
		-50 181 -137 62 -63 76 -84 114 -174 40 -93 44 -111 49 -208 6 -128 -6 -201
		-48 -291 -17 -36 -32 -70 -33 -76 -5 -28 -62 -99 -108 -135 -29 -23 -61 -48
		-71 -56 -37 -30 -164 -86 -227 -100 -41 -9 -127 -14 -236 -14 -188 0 -218 -7
		-266 -57 -87 -91 -56 -227 64 -278 45 -18 333 -21 437 -4 109 18 291 83 377
		136 69 42 200 160 270 243 65 79 161 289 167 368 1 12 5 22 9 22 4 0 7 90 7
		200 0 110 -3 200 -7 200 -4 0 -8 10 -10 23 -6 79 -89 258 -165 356 -137 178
		-301 289 -523 356 -129 38 -129 38 -143 86 -7 23 -20 53 -28 66 -8 13 -13 23
		-10 23 9 0 -36 81 -73 134 -19 27 -75 89 -124 138 -113 111 -231 184 -388 238
		l-116 40 -179 -1 c-98 -1 -187 -3 -198 -6z"/>
		<path d="M1735 2266 c-16 -8 -172 -157 -346 -332 -336 -339 -349 -355 -334
		-431 10 -55 25 -80 65 -108 47 -33 134 -44 174 -23 15 8 94 78 176 156 l149
		143 3 -663 c4 -737 2 -718 69 -763 32 -21 50 -25 111 -25 87 0 125 19 154 76
		18 37 19 71 22 707 l3 668 149 -143 c83 -79 163 -148 178 -155 43 -19 105 -15
		153 10 74 38 107 132 75 212 -15 38 -642 660 -679 674 -38 15 -86 13 -122 -3z"/>
	</g>
</svg>
