<?xml version="1.0" standalone="no"?>
<!DOCTYPE svg PUBLIC "-//W3C//DTD SVG 20010904//EN" "http://www.w3.org/TR/2001/REC-SVG-20010904/DTD/svg10.dtd">
<svg version="1.0" xmlns="http://www.w3.org/2000/svg" width="81.000000pt" height="75.000000pt" viewBox="0 0 813.000000 759.000000" preserveAspectRatio="xMidYMid meet">
    <g transform="translate(0.000000,759.000000) scale(0.100000,-0.100000)" fill="#ffffff" stroke="none">
        <path d="M3765 7414 c-793 -84 -1434 -337 -1987 -786 -145 -117 -469 -442 -578 -578 -82 -103 -256 -360 -319 -471 -35 -62 -40 -108 -13 -131 24 -22 213
        -88 249 -88 38 0 41 4 149 180 220 359 521 679 876 933 367 262 838 464 1284 551 557 108 1024 79 1609 -99 365 -111 799 -347 1095 -595 270 -226 513 -509
        712 -830 93 -149 94 -150 139 -150 35 0 177 54 227 86 51 33 19 115 -144 359 -393 590 -918 1031 -1584 1330 -301 135 -748 247 -1095 274 -146 11 -559 21
        -620 15z"/>
        <path d="M3844 6489 c-72 -9 -221 -57 -296 -95 -91 -46 -170 -104 -261 -193 -143 -139 -227 -281 -279 -468 -18 -66 -22 -106 -22 -263 -1 -160 2 -197 22
        -274 59 -232 190 -430 380 -573 192 -145 409 -210 672 -200 282 10 481 92 678 281 156 150 241 293 293 491 21 79 24 111 23 260 -1 149 -5 182 -28 270 -111
        424 -468 730 -892 765 -135 11 -202 11 -290 -1z m376 -359 c198 -66 335 -188 426 -375 76 -159 94 -305 54 -460 -36 -140 -81 -218 -190 -325 -151 -149 -291
        -210 -490 -213 -113 -1 -191 17 -305 73 -222 108 -360 303 -396 556 -24 173 54 400 188 544 97 105 224 182 353 216 82 21 276 13 360 -16z"/>
        <path d="M7265 5319 c-33 -5 -80 -16 -105 -25 -112 -42 -231 -152 -291 -271 l-34 -67 -3 -181 -3 -182 -167 -70 c-533 -225 -1033 -388 -1537 -502 -181 -41
        -538 -97 -740 -117 -864 -84 -1914 126 -2988 598 -134 59 -139 62 -132 87 3 14 9 83 12 152 4 101 2 138 -12 185 -52 182 -202 335 -370 379 -70 18 -240 20
        -317 4 -140 -29 -291 -156 -365 -307 l-38 -76 0 -160 0 -161 45 -84 c56 -105 160 -214 242 -254 95 -46 168 -59 292 -55 99 3 120 7 193 37 l82 34 163 -71
        c827 -359 1573 -566 2273 -632 120 -11 225 -20 232 -20 15 0 19 6 -496 -778 -659 -1005 -747 -1138 -813 -1234 l-63 -93 -166 -5 c-166 -6 -167 -6 -235 -40
        -89 -45 -206 -161 -254 -250 l-35 -65 0 -195 0 -195 34 -60 c51 -89 182 -215
        267 -256 l69 -34 170 0 170 0 75 40 c96 51 212 165 260 255 33 63 34 68 38
        201 6 188 -8 263 -63 344 l-42 64 239 363 c131 200 335 509 453 688 117 179
        252 384 298 455 300 461 399 606 406 599 10 -11 211 -310 885 -1316 l527 -788
        -21 -27 c-33 -46 -80 -172 -92 -250 -16 -104 1 -224 46 -319 46 -98 152 -209
        246 -258 156 -82 361 -86 520 -9 76 36 216 178 256 258 28 58 29 65 32 234 l3
        174 -37 76 c-47 96 -169 221 -264 271 l-65 35 -170 4 -170 3 -405 605 c-445
        664 -1000 1500 -1000 1507 0 2 51 7 113 10 409 25 1013 146 1500 302 431 138
        557 186 948 359 183 80 187 82 210 65 13 -10 53 -30 89 -46 57 -25 80 -28 192
        -32 142 -4 201 7 300 60 84 45 190 158 235 254 l38 79 0 160 0 160 -50 95
        c-123 235 -323 330 -610 289z m162 -334 c66 -20 136 -82 159 -140 37 -98 -8
        -204 -111 -261 -66 -37 -112 -42 -168 -19 -108 45 -171 165 -140 267 20 69 74
        124 143 148 67 23 56 23 117 5z m-6627 -16 c80 -36 132 -103 146 -186 18 -114
        -126 -257 -240 -239 -101 16 -171 82 -195 184 -19 81 28 186 102 224 85 43
        122 46 187 17z m1477 -3880 c72 -37 107 -93 111 -177 3 -61 1 -72 -30 -122
        -42 -70 -106 -105 -189 -105 -152 0 -260 176 -190 312 59 116 179 153 298 92z
        m3654 20 c115 -39 179 -177 133 -287 -32 -77 -126 -142 -206 -142 -62 0 -140
        47 -173 104 -43 73 -49 110 -30 170 23 71 55 109 117 140 56 28 105 33 159 15z"/>
        <path d="M450 4105 c-37 -44 -37 -458 0 -740 58 -451 162 -797 356 -1184 168
        -336 304 -532 597 -858 85 -94 95 -103 129 -103 31 0 41 6 69 43 18 23 53 64
        76 91 35 39 43 56 43 86 0 34 -10 50 -96 147 -380 430 -635 905 -769 1434 -66
        261 -97 520 -96 820 0 192 -2 218 -17 231 -19 17 -176 48 -240 48 -23 0 -45
        -6 -52 -15z"/>
        <path d="M7418 4103 c-36 -2 -71 -9 -76 -16 -5 -7 -14 -145 -21 -307 -6 -162 -18 -348 -26 -413 -30 -234 -98 -496 -186 -722 -47 -122 -189 -412 -260 -532
        -100 -171 -266 -390 -433 -571 -94 -102 -96 -116 -28 -207 26 -36 56 -79 67 -97 17 -27 27 -34 61 -36 40 -3 43 -1 150 110 427 441 740 1010 889 1618 59
        243 79 389 96 724 12 244 7 398 -17 433 -15 25 -28 25 -216 16z"/>
        <path d="M2827 698 c-8 -13 -33 -59 -56 -102 -33 -63 -41 -88 -39 -120 3 -39 6 -42 58 -68 101 -50 400 -131 635 -172 152 -27 420 -39 760 -33 217 4 351 10
        415 21 214 34 630 144 683 180 52 35 48 79 -16 201 -47 90 -55 100 -82 103 -16 1 -100 -18 -185 -43 -192 -56 -449 -109 -640 -131 -409 -46 -868 3 -1307
        141 -162 52 -206 56 -226 23z"/>
    </g>
</svg>
