<?xml version="1.0" encoding="iso-8859-1"?>
<!DOCTYPE svg PUBLIC "-//W3C//DTD SVG 1.1//EN" "http://www.w3.org/Graphics/SVG/1.1/DTD/svg11.dtd">
<svg height="68pt" viewBox="-22 -21 682 682.66669" width="68pt" xmlns="http://www.w3.org/2000/svg">
	<g fill="#ffffff">
		<path d="m545.304688 93.742188c-60.304688-60.453126-140.488282-93.742188-225.777344-93.742188-85.292969 0-165.472656 33.289062-225.78125 93.742188-60.292969 60.4375-93.496094 140.789062-93.496094 226.257812s33.203125 165.820312 93.496094 226.257812c60.308594 60.453126 140.488281 93.742188 225.78125 93.742188 85.289062 0 165.472656-33.289062 225.777344-93.742188 60.292968-60.4375 93.5-140.792968 93.5-226.257812s-33.207032-165.820312-93.5-226.257812zm-425.011719 26.484374c53.21875-53.347656 123.976562-82.726562 199.234375-82.726562 69.101562 0 134.394531 24.785156 185.816406 70.136719l-84.574219 84.585937c-32.097656-11.285156-66.269531-17.265625-101.242187-17.265625-101.132813 0-195.546875 49.972657-252.554688 133.683594-4.339844 6.375-4.339844 14.742187 0 21.117187 29.703125 43.609376 69.5625 78.058594 115.230469 101.0625l-74.945313 74.960938c-44.953124-51.476562-69.507812-116.726562-69.507812-185.78125 0-75.46875 29.316406-146.414062 82.542969-199.773438zm303.664062 198.972657c0 57.59375-46.851562 104.441406-104.429687 104.441406-21.824219 0-42.105469-6.734375-58.882813-18.234375l27.105469-27.109375c9.464844 5.109375 20.289062 8.015625 31.777344 8.015625 37.003906 0 67.105468-30.105469 67.105468-67.113281 0-11.488281-2.90625-22.316407-8.019531-31.777344l27.105469-27.105469c11.496094 16.773438 18.238281 37.050782 18.238281 58.882813zm-208.859375 0c0-57.59375 46.847656-104.441407 104.429688-104.441407 22.238281 0 42.855468 7.003907 59.808594 18.90625l-27.011719 27.015626c-9.707031-5.460938-20.890625-8.59375-32.796875-8.59375-37.007813 0-67.109375 30.105468-67.109375 67.113281 0 11.910156 3.128906 23.097656 8.59375 32.800781l-27.011719 27.019531c-11.894531-16.957031-18.902344-37.578125-18.902344-59.820312zm134.035156 0c0 16.328125-13.28125 29.613281-29.605468 29.613281-.742188 0-1.480469-.03125-2.207032-.09375l31.722657-31.722656c.054687.730468.089843 1.460937.089843 2.203125zm-59.214843 0c0-16.328125 13.28125-29.613281 29.609375-29.613281 1.242187 0 2.460937.085937 3.65625.234374l-33.03125 33.035157c-.144532-1.195313-.234375-2.417969-.234375-3.65625zm-87.851563 79.589843c-37.539062-18.324218-70.746094-45.382812-96.53125-79.589843 25.785156-34.207031 58.992188-61.265625 96.53125-79.589844-15.4375 22.714844-24.46875 50.117187-24.46875 79.589844 0 29.472656 9.03125 56.875 24.46875 79.589843zm234.917969-159.179687c37.539063 18.324219 70.746094 45.382813 96.539063 79.589844-25.792969 34.207031-59 61.265625-96.539063 79.589843 15.4375-22.710937 24.472656-50.113281 24.472656-79.589843 0-29.472657-9.035156-56.875-24.472656-79.589844zm81.773437 280.164063c-53.21875 53.347656-123.976562 82.726562-199.230468 82.726562-69.101563 0-134.398438-24.785156-185.820313-70.136719l85.761719-85.769531c31.753906 11.015625 65.511719 16.847656 100.058594 16.847656 101.128906 0 195.542968-49.972656 252.554687-133.683594 4.335938-6.367187 4.335938-14.742187 0-21.109374-29.472656-43.277344-68.941406-77.535157-114.164062-100.539063l73.878906-73.890625c44.949219 51.476562 69.507813 116.726562 69.507813 185.78125 0 75.46875-29.316407 146.414062-82.546876 199.773438zm0 0"/>
	</g>
</svg>